<svg xmlns="http://www.w3.org/2000/svg" width="16" height="16" viewBox="0 0 16 16">
  <g id="Group_86" data-name="Group 86" transform="translate(0 -0.266)">
    <circle id="Ellipse_39" data-name="Ellipse 39" cx="8" cy="8" r="8" transform="translate(0 0.266)" fill="#e76f51"/>
    <path id="Path_623" data-name="Path 623" d="M10.47-15.544a2.14,2.14,0,0,1-.168.655,1.709,1.709,0,0,1-.39.556,2.018,2.018,0,0,1-.628.4,2.907,2.907,0,0,1-.883.2,4.1,4.1,0,0,1-.97-.031q-.471-.073-.937-.166T5.567-14.1a3.949,3.949,0,0,0-.926-.047,3.294,3.294,0,0,0-.769.156,2.131,2.131,0,0,0-.672.359,1.74,1.74,0,0,0-.471.593,1.878,1.878,0,0,0-.179.847,1.553,1.553,0,0,0,.13.65,2.169,2.169,0,0,0,.3.489,1.629,1.629,0,0,0,.32.307q.152.1.2.094a3.637,3.637,0,0,1-1.517.1,2.45,2.45,0,0,1-1.127-.473,2.138,2.138,0,0,1-.672-.9A2.411,2.411,0,0,1,.026-13.09a2.807,2.807,0,0,1,.352-1.123,2.807,2.807,0,0,1,.748-.847A3.576,3.576,0,0,1,2.2-15.606a4.849,4.849,0,0,1,1.343-.218,5.809,5.809,0,0,1,1.305.1q.634.125,1.24.291t1.175.317a6.182,6.182,0,0,0,1.116.192,3.332,3.332,0,0,0,1.067-.088A2.633,2.633,0,0,0,10.47-15.544Zm-6.089,3.15q.022-.062.081-.249a1.974,1.974,0,0,0,.081-.4,1.232,1.232,0,0,0-.027-.416.43.43,0,0,0-.233-.3q.217.01.26.01h.282A2.555,2.555,0,0,1,6-13.465a1.627,1.627,0,0,1,.623.6,1.478,1.478,0,0,1,.2.733,2.021,2.021,0,0,1-.108.686l-1.2,3.409q-.022.062-.081.249a1.974,1.974,0,0,0-.081.4,1.232,1.232,0,0,0,.027.416.43.43,0,0,0,.233.3q-.217-.01-.26-.01H5.064a2.556,2.556,0,0,1-1.175-.281,1.627,1.627,0,0,1-.623-.6,1.478,1.478,0,0,1-.2-.733,2.021,2.021,0,0,1,.108-.686Z" transform="translate(2.76 19.518)" fill="#fff"/>
  </g>
</svg>
